<svg xmlns="http://www.w3.org/2000/svg" xmlns:xlink="http://www.w3.org/1999/xlink" width="436.603" height="614.326" viewBox="0 0 436.603 614.326">
  <defs>
    <filter id="Path_1" x="0" y="0" width="436.603" height="614.326" filterUnits="userSpaceOnUse">
      <feOffset dy="3" input="SourceAlpha"/>
      <feGaussianBlur stdDeviation="3" result="blur"/>
      <feFlood flood-opacity="0.349"/>
      <feComposite operator="in" in2="blur"/>
      <feComposite in="SourceGraphic"/>
    </filter>
  </defs>
  <g id="Group_64" data-name="Group 64" transform="translate(-1264.999 -238.332)">
    <g id="Group_1" data-name="Group 1" transform="translate(1273.999 244.332)">
      <g transform="matrix(1, 0, 0, 1, -9, -6)" filter="url(#Path_1)">
        <path id="Path_1-2" data-name="Path 1" d="M418.7-119.4c-15.174-16.493-56.077-32.327-69.932,1.979-35.626,87.744-52.119,172.19-72.571,263.893-46.841,0-68.612,1.32-90.383.66C191.088,79.181,218.137-17.8,224.735-63.981c3.3-21.771-44.862-21.111-55.418-21.111S151.5-82.453,148.206-71.9c-18.473,86.425-37.6,156.356-48.16,218.371-25.07,1.979-48.82-1.319-72.571,0-42.223,0-25.73,26.389-15.174,40.244C35.391,223.662,67.059,270.5,67.059,315.365c0,5.938-1.319,11.875-1.319,18.472,0,19.792,35.626,32.327,61.355,32.327,27.049,0,25.07-11.875,27.049-27.049,8.577-77.189,17.813-120.071,24.41-161.634,40.9-1.979,65.973.66,91.043,0-11.215,58.716-34.306,181.426-39.584,247.4-1.979,25.73,21.771,33.646,40.244,33.646s25.07-3.958,26.389-18.473c7.257-73.23,18.473-146.461,40.244-260.594,1.319-6.6,12.535-3.3,12.535-11.875,0-4.618-4.618-9.9-7.917-12.535C361.3,64.007,385.05-29.675,418.7-119.4ZM92.788,176.162c-1.979,8.577-3.958,17.153-5.278,25.73-6.6-8.576-12.535-17.153-18.473-25.73Z" transform="translate(8.91 143.8)"/>
      </g>
    </g>
  </g>
</svg>
