<svg xmlns="http://www.w3.org/2000/svg" width="367.958" height="270.226" viewBox="0 0 367.958 270.226">
  <g id="Group_185" data-name="Group 185" transform="translate(0 0)">
    <path id="Path_705" data-name="Path 705" d="M154.467-9.152a10.493,10.493,0,0,1-2.957.433H58.333a10.68,10.68,0,0,1-3.044-.433H-7.238V68.275c.025,1,.028,2.015,0,3.039v189.76h133.2a5.954,5.954,0,0,1,1.371-.165h54.684a6.437,6.437,0,0,1,1.442.165H359.839V-9.152Z" transform="translate(8.119 9.152)" fill="#d4af37"/>
    <g id="Group_4" data-name="Group 4" transform="translate(30.788 23.759)">
      <path id="Path_706" data-name="Path 706" d="M380.216,211.761l-5.618,4.365s-6.482-5.959-9.334,5.848l-4.667,1.656-4.926-2.2-1.556,5.069s-8.815,6.841-15.038-4.525c0,0-2.333-17.1-15.557-14.455l-20.483,9.49-4.148-8.166-5.445,1.324,2.852,3.09h-7.26l-2.852-6.017-3.63,1.162,2.075,6.179L281,217.891l-5.963-2.426v-8.224l-7.26-2.369-1.556-7.724h-4.408v-8.386l-5.963-5.518v-6.179l6.742-1.324.518-12.359s3.889-8.607,12.445-4.193-6.482-24.5-6.482-24.5l2.074-3.595,7.26,2.05,2.333-3.311-4.667-2.869L279.7,113.5l17.631-4.855s8.3-18.538,10.112-18.538a43.333,43.333,0,0,0,6.741-1.324l.259-3.972,8.816-1.1-.519-10.152h4.667l2.074-8.828,8.816-1.986,1.037-7.5,10.371-2.869,14.52,5.738,8.556-1.765,9.853-.221,7.778-8.166,7.779,4.414,3.371-4.414H409.6l4.667,2.427,16.075-1.545,9.334,9.269,4.926,1.545,4.926-5.517s15.038,9.269,15.816,9.269h7l7,6.4,9.593-.221,14.779,4.855L515.9,80.4l7.649,1.1,2.722,5.3,5.963,11.035,7.519,3.311-2.333,9.49s.778,11.035,6.482,9.931,16.075,19.421,16.075,19.421v13.021l18.409,11.476v4.634l-4.926.662,2.593,6.4h3.889v2.869l2.074,2.869s-.259,11.917-7.519,11.917h-7.26l-7-5.873-2.074,7.418-5.445,1.324-2.852,9.49-9.593-5.959-3.63,3.531-3.889,5.959-3.889-1.545s-2.852-16.111-14.779,3.973c0,0-6.223,1.1-4.667,1.545s.778,3.531.778,3.531l-1.556,4.2-7-3.759-8.556,1.766-2.593-3.311-4.149-.883-1.3,3.09-5.7-1.986.778-4.414-7.519.221-5.7,5.076-3.889-.662,1.815-3.09-8.893-5.518" transform="translate(-255.849 -47.959)" fill="#fff" stroke="#fff" stroke-miterlimit="10" stroke-width="2"/>
      <path id="Path_707" data-name="Path 707" d="M570.1,273.336H566.8c3.294,4.588-11.8,16.213-11.8,16.213l-22.233.612-36.782,20.19,8.235-14.377-11.8-.306c2.2,5.506-33.762,34.873-24.7,26.92a14.124,14.124,0,0,0,1.9-2.047c6.617-8.67,3.586-24.261,3.586-24.261l-6.588,1.224c2.745,1.835-1.922,14.378-1.922,14.378-5.764,14.377-5.764,1.529-6.588,2.6s2.276-22.795,2.276-22.795l-9.962,4.283c5.49,14.071,0,28.143,0,28.143-7.137,4.282-16.194-27.837-16.194-27.837l-5.49,4.283c6.588,8.259,7.137,22.025,7.137,22.025-3.843,1.529-8.509-16.825-8.509-16.825-8.784-18.966-14.822-13.154-14.822-13.154l11.254,23.555c-21.685-4.895-26.076-30.9-27.449-31.814-4.321-2.889-4.941,1.817-4.941,1.817l7.96,12.866c-13.175-11.624-14.273-6.118-14.273-6.118l32.917,26.074c-6.379-4.748-34.015-7.414-34.015-7.414l-31.84-24.8c-3.568-2.165-3.843,2.165-3.843,2.165-.274,3.365,30.468,22.9,30.468,22.9-10.7-1.706-8.542-.281-8.045,0-.129-.01-.319.284.084,2.65a1.147,1.147,0,0,0,.461.664c3.368,2.721,23.694,3.767,23.694,3.767,51.054,27.532,43.918,51.392,43.918,51.392-5.7,6.5-10.791,21.748-14.487,35.508h47.574a8,8,0,0,1,1.113.079c-2.193-8.529-3.929-16.884-4.788-21.215.072-1.393.15-2.916.233-4.583,1.922-38.544,40.9-53.84,40.9-53.84,21.685.306,33.213-8.871,33.213-8.871l-2.471-2.9c-15.92,13.923-30.468,5.961-30.468,5.961l13.724-9.177,24.429-2.141,9.333-5.506c4.941-9.177-.549-6.73-.549-6.73l-15.371,10.095-20.312,1.529-13.175,7.342c-6.862-7.648,22.783-14.684,22.783-14.684l4.392-7.035,20.312-1.224,13.45-11.013C577.506,274.865,570.1,273.336,570.1,273.336Z" transform="translate(-303.979 -165.279)" fill="#d4af37" stroke="#fff" stroke-miterlimit="10" stroke-width="2"/>
    </g>
    <g id="Group_8" data-name="Group 8" transform="translate(0 157.933)" opacity="0.9">
      <g id="Group_7" data-name="Group 7" transform="translate(0 36.728)">
        <path id="Path_708" data-name="Path 708" d="M-9.254,438.521c0,1.589,0,2.892,0,4.2,0,15.479.108,30.944-.1,46.411-.035,2.524,1.431,3.234,5.965,3.113,8.878-.225,17.779-.259,26.673-.235q52.129.152,104.272.3,104.559.236,209.115.288l20.735.017v-54.47C238.456,470.293,109.756,470.363-9.254,438.521Z" transform="translate(9.357 -419.391)" fill="#fff"/>
        <g id="Group_6" data-name="Group 6" transform="translate(0)">
          <g id="Group_5" data-name="Group 5">
            <path id="Path_709" data-name="Path 709" d="M-9.254,371.241c117.883,42.621,248.847,42.492,366.658-.766v73.091c-7.173,0-13.953,0-20.733-.005q-104.54-.046-209.118-.252-52.142-.123-104.272-.326c-8.893-.026-17.794.028-26.671.337-4.535.166-6-.785-5.965-4.172.21-20.755.1-41.508.1-62.278C-9.254,375.121-9.254,373.373-9.254,371.241Zm24.188,70.766c-.23-20.749-.456-41.1-.683-61.535-7.489-2.27-14.63-4.606-21.755-7.1.022,22.968.044,45.593.066,68.424C.1,441.872,7.341,441.939,14.933,442.007Zm172.313-38.336c-.079,13.092-.157,26.052-.235,39.028,5.841.006,11.181.009,17.174.01.1-7.94.206-15.754.308-23.559,2.337-.236,4.023-.414,5.776-.6.082-5.391.162-10.653.243-15.964C202.529,403.124,194.964,403.472,187.246,403.671Zm-2.274-.066c-6.971.149-13.532.094-20.06.136-1.041.007-2.745.916-2.79,1.45-.258,3.029-.105,6.073-.092,9.111.007,1.658.016,3.315.024,4.888,2.633.237,4.289.378,6.437.557.017,7.691.033,15.271.05,22.9,5.706.011,10.844.018,16.234.024C184.841,429.678,184.906,416.827,184.972,403.605Zm170.66,38.7c.021-23.4.04-46.476.061-69.739-7.071,2.514-13.9,4.783-20.992,6.983-.09,8.419-.176,16.589-.264,24.877,1.68-.012,3.233-.02,5.251-.029-.106,12.712-.212,25.283-.318,38C344.957,442.362,349.974,442.334,355.632,442.3Zm-72.406.093c.41-16.669.818-33.255,1.227-49.873-7.417,1.535-14.481,2.841-21.484,4-.161,6.271-.316,12.333-.471,18.366,2.022-.057,3.547-.1,5.657-.169-.025.963-.048,1.884-.072,2.805q-.24,9.361-.481,18.723c-.184,7.165-.184,7.2,14.715,6.376A7.722,7.722,0,0,0,283.226,442.393Zm-170.516.135c-.315-14.125-.625-28.038-.936-42.031-7.555-.847-14.784-1.81-22.007-2.914.154,6.054.3,11.876.451,17.761,1.965.352,3.625.643,5.983,1.044l.648,26.062C102.407,442.48,107.235,442.5,112.71,442.528ZM16.8,381.137c.247,20.363.492,40.52.737,60.622,5.482.054,10.456.1,15.947.151-.2-11.258-.4-22.281-.594-33.351,2.156.14,3.8.245,5.613.36-.143-7.357-.284-14.584-.427-21.911C30.756,385.145,23.807,383.222,16.8,381.137ZM301.484,442.5c.23-10.826.456-21.467.681-32.012,2.342-.622,3.968-1.068,5.548-1.506.148-7.435.291-14.64.436-21.993-7.167,1.824-14.019,3.418-21.054,4.915-.412,16.989-.82,33.81-1.228,50.655C291.172,442.544,295.974,442.526,301.484,442.5ZM114.323,400.719c.3,14.031.606,27.9.906,41.746,5.314.024,10.109.044,15.311.064-.14-8.061-.278-15.956-.42-24.118,4.819.71,4.865-.477,4.784-1.771-.122-1.966-.085-3.925-.115-5.887-.043-2.73-.086-5.459-.13-8.232C127.337,402.006,120.884,401.42,114.323,400.719ZM47.59,442.08l10.328.08c-.24-10.131-.477-20.1-.714-30.1,2.873.2,5.034.337,7.238.478-.164-6.619-.322-13.018-.484-19.583-7.966-1.615-15.621-3.346-23.285-5.25.149,7.364.293,14.5.437,21.613,2.015.507,3.662.912,5.8,1.426C47.138,421.195,47.362,431.531,47.59,442.08Zm112.569-38.32c-8.056-.191-15.725-.541-23.45-1.051.081,5.383.159,10.568.239,15.869,2.452.211,4.634.391,7.505.613.1,7.882.192,15.647.288,23.436l9.629.027c-.065-7.805-.13-15.5-.194-23.211,2.377-.079,4.07-.142,6.072-.22C160.219,414.024,160.189,408.913,160.159,403.759Zm99.657,11.41c.159-6.218.312-12.217.467-18.256-7.785,1.248-15.1,2.26-22.612,3.149-.131,5.745-.258,11.34-.387,16.961,2.117.014,3.92.022,6.141.027-.205,8.595-.408,17.057-.611,25.584l10.582-.02c.225-8.941.446-17.69.668-26.515C256.259,415.755,257.941,415.482,259.816,415.17ZM71.25,413.761c.243,9.585.481,18.958.722,28.465,3.743.025,6.927.047,10.611.07-.237-9.2-.469-18.225-.7-27.316,2.317.088,4.161.153,6.052.216-.154-6.038-.306-11.981-.461-18.049-7.383-1.167-14.293-2.4-21.842-3.9.143,5.734.359,11.32.375,16.879C66.011,411.879,66.167,413.409,71.25,413.761Zm261.157-33.482c-7.569,2.3-14.682,4.3-21.862,6.162-.146,7.611-.287,14.968-.428,22.311,2.09-.147,3.747-.265,6.1-.435-.2,11.449-.394,22.781-.59,34.088l9.618-.048c.169-12.081.335-23.921.5-35.739,2.576-.645,4.4-1.115,6.379-1.636C332.218,396.69,332.312,388.612,332.408,380.279ZM218.9,418.5c-.148,8.185-.293,16.193-.437,24.2l10.193-.007c.175-8.335.347-16.535.518-24.68,2.4-.357,4.063-.614,5.585-.853.127-5.7.251-11.256.374-16.783-7.647.865-14.821,1.523-22.1,2.053-.087,5.448-.172,10.735-.258,16.089C214.715,418.518,216.251,418.515,218.9,418.5Z" transform="translate(9.357 -370.475)" fill="#d4af37"/>
          </g>
        </g>
        <path id="Path_711" data-name="Path 711" d="M643.659,525.026c7.077-.145,14.015-.4,21.34-.8-.055,3.958-.11,7.88-.167,11.9-1.611.14-3.159.273-5.306.447-.07,5.817-.14,11.64-.212,17.556-5.52,0-10.438-.008-15.817-.015C643.551,544.441,643.6,534.783,643.659,525.026Z" transform="translate(-446.077 -481.629)" fill="#fff"/>
        <path id="Path_712" data-name="Path 712" d="M581.5,526.935c-.046,9.854-.091,19.43-.136,29.117-4.965-.007-9.7-.014-14.951-.025-.011-5.689-.023-11.338-.034-17.069-1.973-.134-3.494-.24-5.912-.418-.006-1.172-.012-2.407-.017-3.642a61.74,61.74,0,0,1,.095-6.79c.042-.4,1.606-1.075,2.56-1.08C569.093,527,575.107,527.043,581.5,526.935Z" transform="translate(-388.129 -483.589)" fill="#fff"/>
        <path id="Path_713" data-name="Path 713" d="M1152.911,495.716c-5.213.021-9.835.039-14.981.058.073-9.477.145-18.845.218-28.318-1.867,0-3.3.011-4.857.018.06-6.176.12-12.265.181-18.539,6.573-1.635,12.908-3.322,19.481-5.19C1152.939,461.08,1152.925,478.279,1152.911,495.716Z" transform="translate(-787.783 -423.445)" fill="#fff"/>
        <path id="Path_714" data-name="Path 714" d="M913.1,534.448a8.484,8.484,0,0,1-.837.17c-13.719.61-13.719.58-13.592-4.759q.165-6.977.33-13.953c.016-.687.033-1.373.05-2.091-1.943.048-3.348.081-5.209.123.106-4.5.213-9.014.323-13.687,6.442-.862,12.944-1.831,19.777-2.971C913.66,509.666,913.38,522.026,913.1,534.448Z" transform="translate(-620.818 -462.15)" fill="#fff"/>
        <path id="Path_715" data-name="Path 715" d="M342.052,544.093c-5.043-.021-9.489-.041-14.608-.065-.149-6.513-.3-12.954-.445-19.422-2.167-.3-3.694-.517-5.5-.781-.1-4.385-.2-8.725-.31-13.236,6.641.826,13.283,1.547,20.221,2.181C341.623,523.2,341.836,533.566,342.052,544.093Z" transform="translate(-221.25 -471.771)" fill="#fff"/>
        <path id="Path_718" data-name="Path 718" d="M402.626,519.063c6.024.526,11.947.965,18.665,1.352.03,2.067.06,4.1.089,6.135.021,1.462-.02,2.922.084,4.387.07.964.023,1.849-4.4,1.318.1,6.083.192,11.966.288,17.974-4.791-.017-9.207-.034-14.1-.055C403.042,539.857,402.835,529.519,402.626,519.063Z" transform="translate(-278.131 -477.897)" fill="#fff"/>
        <path id="Path_720" data-name="Path 720" d="M498.3,525.242c.021,3.841.041,7.65.061,11.523-1.839.057-3.394.1-5.578.161.044,5.747.088,11.481.133,17.3l-8.868-.024-.2-17.465c-2.638-.166-4.643-.3-6.895-.46-.055-3.951-.109-7.815-.164-11.827C483.876,524.832,490.91,525.1,498.3,525.242Z" transform="translate(-329.778 -481.791)" fill="#fff"/>
        <path id="Path_721" data-name="Path 721" d="M830.85,522.662c-1.725.232-3.272.434-5.291.691-.152,6.576-.3,13.1-.458,19.76l-9.746.01c.14-6.355.278-12.661.419-19.066-2.044-.005-3.7-.012-5.65-.023.088-4.189.175-8.359.265-12.64,6.9-.66,13.621-1.41,20.78-2.337C831.065,513.557,830.96,518.028,830.85,522.662Z" transform="translate(-562.347 -470.664)" fill="#fff"/>
        <path id="Path_723" data-name="Path 723" d="M1072.736,464.451c-.066,6.209-.13,12.23-.2,18.409-1.833.387-3.514.736-5.893,1.215-.079,6.087-.157,12.182-.237,18.338q-.053,4.127-.107,8.3l-8.86.031c.135-8.426.269-16.872.405-25.4-2.17.125-3.7.212-5.629.321.1-5.472.194-10.955.294-16.627C1059.145,467.646,1065.725,466.164,1072.736,464.451Z" transform="translate(-729.171 -438.415)" fill="#fff"/>
        <path id="Path_724" data-name="Path 724" d="M734.445,531.831c-2.436.01-3.848.011-5.63.011.059-3.99.118-7.93.178-11.99,6.678-.392,13.262-.879,20.285-1.52-.084,4.119-.169,8.258-.257,12.507-1.4.177-2.923.368-5.132.633-.117,6.071-.235,12.181-.355,18.393h-9.388C734.245,543.9,734.344,537.931,734.445,531.831Z" transform="translate(-505.656 -477.37)" fill="#fff"/>
      </g>
    </g>
    <path id="Union_3" data-name="Union 3" d="M.088,9.98A2.779,2.779,0,0,0,1.36,11.456c.032.02.059.044.076.057a13.194,13.194,0,0,0-.908.972c-.663.871-.418,2.174,1.012,2.867A4.465,4.465,0,0,0,6,14.962c.558-.441.57-1.038.087-1.393a1.87,1.87,0,0,0-2.038-.037c-.532.4-.619.884.037,1.356.091.066.2.122.3.182a2.719,2.719,0,0,1-3.1-.3,1.427,1.427,0,0,1-.439-1.992,11.1,11.1,0,0,1,.872-1.046c.416.145.754.257,1.084.379a6.553,6.553,0,0,0,3.111.281,5.086,5.086,0,0,0,3.985-2.232A2.953,2.953,0,0,0,10.177,7.8,6.3,6.3,0,0,0,9.061,5.59c-.223-.295-.115-.5.1-.74a15.977,15.977,0,0,0,1.511-1.761A2.564,2.564,0,0,0,10.967.913,2.877,2.877,0,0,0,10.786.35.644.644,0,0,0,10.01.031,6.9,6.9,0,0,0,7.4,1.2a2.742,2.742,0,0,0-.962,2.619,4.513,4.513,0,0,0,.677,1.763c.166.259.211.454-.082.685a9.744,9.744,0,0,0-.825.807A5.463,5.463,0,0,0,2.954,6.6a3.635,3.635,0,0,0-1.982.928A2.343,2.343,0,0,0,.088,9.98Zm8.35-5.241a1.843,1.843,0,0,1-.192-.253C7.952,3.9,7.627,3.317,7.388,2.72c-.258-.643.011-1.212.721-1.666.439-.28.78-.244,1.051.119a2.2,2.2,0,0,1,.386.738C9.818,2.96,9.235,3.858,8.438,4.739ZM2.086,11.43,5.651,8.144c.941.411,1.5,1.247,1.134,1.913-.416.754-.857,1.314-2.688,1.258a3.714,3.714,0,0,0,2.064-.074,2.115,2.115,0,0,0,1.59-2.149,2.487,2.487,0,0,0-1.159-1.8l.957-.9c.092.169.164.3.235.43a4.681,4.681,0,0,1,.706,2.618,3.076,3.076,0,0,1-2.814,2.522A5.425,5.425,0,0,1,2.086,11.43Zm1-3.636a3.359,3.359,0,0,1,2.207.172l-3.526,3.27A3.3,3.3,0,0,1,1.515,11C.581,9.908,1.373,8.264,3.086,7.793Z" transform="translate(202.363 189.188)" fill="#d4af37"/>
    <path id="Path_728" data-name="Path 728" d="M940.285,387.375" transform="translate(-653.717 -222.411)"/>
    <g id="Group_184" data-name="Group 184" transform="translate(35.61 63.587)">
      <path id="Path_1060" data-name="Path 1060" d="M366,947.167v-9.742s-13.905-21.535-29.446-20.253c0,0-29.174,4.358-32.719,2.308a31.65,31.65,0,0,1-9.543-28.457s-9-31.277-23.448-27.944c0,0-16.9,12.306-38.444,1.282,0,0-15.541,3.076-17.995,14.357,0,0-45.806,45.633-77.706,40.506,0,0-20.995,17.946-37.354,16.664l-7.089,16.408s.546,6.153,7.635-2.307l8.179-9.486L99.62,956.139s2.727,6.922,12.27-7.178l3.272-6.409.545,8.716a33.133,33.133,0,0,0,12.27-13.075c4.635-8.973.273-1.795.273-1.795l4.362-7.178s59.711-5.9,86.7-43.326c0,0,6-4.358,6.816-.257,0,0,11,38.236,9.483,69.207h34.618c-2.63-22.273-2.676-50.937,11.793-62.028L294.567,932.3s5.726,3.333,14.178-3.589c0,0,29.174-14.1,30.81,2.564.177,1.8.316,3.244.423,4.378l3.395,16.644s6.544,7.691,5.181-7.948l.187-7.435s9.356,4.358,9.083,10.255,7.907,17.433,6.817,9.742l.1-11.416C365.5,946.5,366,947.167,366,947.167Zm-9.27-11.024c1.141.537,5.2,5.687,7.551,8.754C362.394,942.924,355.311,935.475,356.732,936.143Z" transform="translate(-92.258 -780.288)"/>
      <g id="Group_161" data-name="Group 161" transform="translate(147.953 79.315)">
        <path id="Path_1062" data-name="Path 1062" d="M438.969,928.721l-2.3-1.887L426.247,874s16.418-31.482,27.523,0Z" transform="translate(-426.247 -860.01)" fill="#fff" stroke="#fff" stroke-miterlimit="10" stroke-width="2"/>
        <path id="Path_1063" data-name="Path 1063" d="M434.142,895.474s16.86-15.095,18.7,0l-9.35,39.938Z" transform="translate(-430.156 -874.249)"/>
        <path id="Union_10" data-name="Union 10" d="M.072,12.11A3.342,3.342,0,0,0,1.127,13.9a.885.885,0,0,1,.063.069c-.258.4-.54.772-.752,1.179a2.781,2.781,0,0,0,.838,3.479,2.756,2.756,0,0,0,3.695-.472,1.271,1.271,0,0,0,.072-1.691,1.156,1.156,0,0,0-1.689-.045,1.1,1.1,0,0,0,.031,1.646c.076.08.164.148.246.221a1.716,1.716,0,0,1-2.568-.363A2.26,2.26,0,0,1,.7,15.507a13.5,13.5,0,0,1,.722-1.27c.345.176.625.312.9.459a3.82,3.82,0,0,0,2.578.341A4.238,4.238,0,0,0,8.2,12.33a5.074,5.074,0,0,0,.234-2.866,9.385,9.385,0,0,0-.925-2.681.8.8,0,0,1,.085-.9A19.227,19.227,0,0,0,8.846,3.749a4.378,4.378,0,0,0,.242-2.641A4.705,4.705,0,0,0,8.938.425C8.825.1,8.568-.084,8.295.038A5.1,5.1,0,0,0,6.134,1.452a4.28,4.28,0,0,0-.8,3.179A7.168,7.168,0,0,0,5.9,6.769a.678.678,0,0,1-.068.831,10.676,10.676,0,0,0-.684.979A3.277,3.277,0,0,0,2.448,8,2.761,2.761,0,0,0,.805,9.129,3.649,3.649,0,0,0,.072,12.11Zm6.92-6.36a2.4,2.4,0,0,1-.16-.307C6.589,4.73,6.32,4.025,6.122,3.3a1.93,1.93,0,0,1,.6-2.021c.363-.34.646-.3.871.144a3.26,3.26,0,0,1,.32.9A4.8,4.8,0,0,1,6.992,5.75ZM1.728,13.869,4.683,9.882A2.072,2.072,0,0,1,5.622,12.2,1.911,1.911,0,0,1,3.395,13.73a2.153,2.153,0,0,0,1.71-.089,2.68,2.68,0,0,0,1.318-2.608,3.38,3.38,0,0,0-.96-2.181l.793-1.088c.077.206.136.363.195.521a7.793,7.793,0,0,1,.585,3.177A3.244,3.244,0,0,1,4.7,14.523,3.283,3.283,0,0,1,1.728,13.869Zm.828-4.413a1.981,1.981,0,0,1,1.829.209L1.464,13.634c-.09-.121-.159-.2-.209-.284A2.856,2.856,0,0,1,2.557,9.457Z" transform="translate(27.857 22.315)" fill="#d4af37"/>
      </g>
      <g id="Group_162" data-name="Group 162" transform="translate(106.414 0)">
        <g id="Group_160" data-name="Group 160" transform="translate(19.083 24.358)">
          <ellipse id="Ellipse_6" data-name="Ellipse 6" cx="32.699" cy="33.544" rx="32.699" ry="33.544"/>
          <rect id="Rectangle_8" data-name="Rectangle 8" width="12.121" height="12.121" transform="translate(40.909 29.844)" fill="#fff"/>
          <rect id="Rectangle_9" data-name="Rectangle 9" width="12.121" height="12.121" transform="translate(12.546 41.965) rotate(-90)" fill="#fff"/>
        </g>
        <path id="Path_1167" data-name="Path 1167" d="M11,9.918c1.351,1.387-2.53,5.651-5.651,5.651s-7-5.054-5.651-5.651S9.647,8.531,11,9.918Z" transform="translate(46.729 65.586)" fill="#fff"/>
        <g id="Group_159" data-name="Group 159" transform="translate(0)">
          <g id="Group_60" data-name="Group 60" transform="translate(0)">
            <ellipse id="Ellipse_9" data-name="Ellipse 9" cx="51.868" cy="11.861" rx="51.868" ry="11.861" transform="translate(0 25.464)"/>
            <path id="Path_1064" data-name="Path 1064" d="M381.378,748.36s9.844-19.437,0-29.2l71.177-2.091s-8.329,27.084,0,31.288S401.536,782.773,381.378,748.36Z" transform="translate(-365.496 -717.072)"/>
          </g>
          <path id="Union_9" data-name="Union 9" d="M.208,9.3a2.274,2.274,0,0,0,.965,1.035c.021.012.04.029.052.037-.113.3-.245.593-.326.895A1.894,1.894,0,0,0,1.97,13.451a1.877,1.877,0,0,0,2.387-.859.865.865,0,0,0-.2-1.134.788.788,0,0,0-1.13.219.75.75,0,0,0,.263,1.09c.062.042.131.074.2.111a1.169,1.169,0,0,1-1.761.137,1.538,1.538,0,0,1-.6-1.553,9.137,9.137,0,0,1,.293-.951c.255.066.461.115.665.173a2.6,2.6,0,0,0,1.764-.154,2.885,2.885,0,0,0,1.8-2.287A3.456,3.456,0,0,0,5.377,6.3a6.4,6.4,0,0,0-1.01-1.646.547.547,0,0,1-.075-.61,13.172,13.172,0,0,0,.517-1.6A2.985,2.985,0,0,0,4.58.651a3.235,3.235,0,0,0-.2-.432c-.124-.2-.321-.283-.485-.162A3.474,3.474,0,0,0,2.667,1.315a2.917,2.917,0,0,0-.062,2.231,4.888,4.888,0,0,0,.689,1.339.462.462,0,0,1,.077.562,7.129,7.129,0,0,0-.31.752,2.231,2.231,0,0,0-1.88.015,1.88,1.88,0,0,0-.926.99A2.484,2.484,0,0,0,.208,9.3ZM3.871,4.046a1.608,1.608,0,0,1-.151-.181c-.267-.437-.55-.867-.789-1.319a1.314,1.314,0,0,1,.1-1.432c.192-.28.386-.293.6-.033a2.231,2.231,0,0,1,.345.549A3.267,3.267,0,0,1,3.871,4.046Zm-2.3,6.174L2.945,7.134a1.411,1.411,0,0,1,.967,1.4A1.3,1.3,0,0,1,2.656,9.882,1.467,1.467,0,0,0,3.78,9.571a1.826,1.826,0,0,0,.491-1.928,2.3,2.3,0,0,0-.96-1.309l.367-.84.207.318a5.312,5.312,0,0,1,.857,2.026,2.21,2.21,0,0,1-1.1,2.379A2.235,2.235,0,0,1,1.568,10.221Zm-.1-3.056a1.346,1.346,0,0,1,1.247-.131L1.358,10.1c-.078-.067-.135-.108-.181-.158A1.945,1.945,0,0,1,1.469,7.165Z" transform="translate(83.604 31.031)" fill="#d4af37"/>
        </g>
      </g>
    </g>
  </g>
</svg>
