<svg xmlns="http://www.w3.org/2000/svg" xmlns:xlink="http://www.w3.org/1999/xlink" width="624.018" height="614.326" viewBox="0 0 624.018 614.326">
  <defs>
    <style>
      .cls-1 {
        fill: #098dd0;
      }

      .cls-2 {
        filter: url(#Path_48);
      }

      .cls-3 {
        filter: url(#Path_1-2);
      }

      .cls-4 {
        filter: url(#Path_1);
      }
    </style>
    <filter id="Path_1" x="23.771" y="0" width="436.603" height="614.326" filterUnits="userSpaceOnUse">
      <feOffset dy="3" input="SourceAlpha"/>
      <feGaussianBlur stdDeviation="3" result="blur"/>
      <feFlood flood-opacity="0.349"/>
      <feComposite operator="in" in2="blur"/>
      <feComposite in="SourceGraphic"/>
    </filter>
    <filter id="Path_1-2" x="0" y="0" width="436.603" height="614.326" filterUnits="userSpaceOnUse">
      <feOffset dy="3" input="SourceAlpha"/>
      <feGaussianBlur stdDeviation="3" result="blur-2"/>
      <feFlood flood-opacity="0.349"/>
      <feComposite operator="in" in2="blur-2"/>
      <feComposite in="SourceGraphic"/>
    </filter>
    <filter id="Path_48" x="399.621" y="41.36" width="224.397" height="565.484" filterUnits="userSpaceOnUse">
      <feOffset dy="3" input="SourceAlpha"/>
      <feGaussianBlur stdDeviation="3" result="blur-3"/>
      <feFlood flood-opacity="0.161"/>
      <feComposite operator="in" in2="blur-3"/>
      <feComposite in="SourceGraphic"/>
    </filter>
  </defs>
  <g id="Group_69" data-name="Group 69" transform="translate(-1146.999 -238)">
    <g id="Group_68" data-name="Group 68" transform="translate(1179.77 244)">
      <g class="cls-4" transform="matrix(1, 0, 0, 1, -32.77, -6)">
        <path id="Path_1-3" data-name="Path 1" class="cls-1" d="M418.7-119.4c-15.174-16.493-56.077-32.327-69.932,1.979-35.626,87.744-52.119,172.19-72.571,263.893-46.841,0-68.612,1.32-90.383.66C191.088,79.181,218.137-17.8,224.735-63.981c3.3-21.771-44.862-21.111-55.418-21.111S151.5-82.453,148.206-71.9c-18.473,86.425-37.6,156.356-48.16,218.371-25.07,1.979-48.82-1.319-72.571,0-42.223,0-25.73,26.389-15.174,40.244C35.391,223.662,67.059,270.5,67.059,315.365c0,5.938-1.319,11.875-1.319,18.472,0,19.792,35.626,32.327,61.355,32.327,27.049,0,25.07-11.875,27.049-27.049,8.577-77.189,17.813-120.071,24.41-161.634,40.9-1.979,65.973.66,91.043,0-11.215,58.716-34.306,181.426-39.584,247.4-1.979,25.73,21.771,33.646,40.244,33.646s25.07-3.958,26.389-18.473c7.257-73.23,18.473-146.461,40.244-260.594,1.319-6.6,12.535-3.3,12.535-11.875,0-4.618-4.618-9.9-7.917-12.535C361.3,64.007,385.05-29.675,418.7-119.4ZM92.788,176.162c-1.979,8.577-3.958,17.153-5.278,25.73-6.6-8.576-12.535-17.153-18.473-25.73Z" transform="translate(32.68 143.8)"/>
      </g>
    </g>
    <g id="Group_64" data-name="Group 64" transform="translate(-118 -0.332)">
      <g id="Group_1" data-name="Group 1" transform="translate(1273.999 244.332)">
        <g class="cls-3" transform="matrix(1, 0, 0, 1, -9, -6)">
          <path id="Path_1-4" data-name="Path 1" d="M418.7-119.4c-15.174-16.493-56.077-32.327-69.932,1.979-35.626,87.744-52.119,172.19-72.571,263.893-46.841,0-68.612,1.32-90.383.66C191.088,79.181,218.137-17.8,224.735-63.981c3.3-21.771-44.862-21.111-55.418-21.111S151.5-82.453,148.206-71.9c-18.473,86.425-37.6,156.356-48.16,218.371-25.07,1.979-48.82-1.319-72.571,0-42.223,0-25.73,26.389-15.174,40.244C35.391,223.662,67.059,270.5,67.059,315.365c0,5.938-1.319,11.875-1.319,18.472,0,19.792,35.626,32.327,61.355,32.327,27.049,0,25.07-11.875,27.049-27.049,8.577-77.189,17.813-120.071,24.41-161.634,40.9-1.979,65.973.66,91.043,0-11.215,58.716-34.306,181.426-39.584,247.4-1.979,25.73,21.771,33.646,40.244,33.646s25.07-3.958,26.389-18.473c7.257-73.23,18.473-146.461,40.244-260.594,1.319-6.6,12.535-3.3,12.535-11.875,0-4.618-4.618-9.9-7.917-12.535C361.3,64.007,385.05-29.675,418.7-119.4ZM92.788,176.162c-1.979,8.577-3.958,17.153-5.278,25.73-6.6-8.576-12.535-17.153-18.473-25.73Z" transform="translate(8.91 143.8)"/>
        </g>
      </g>
    </g>
    <g class="cls-2" transform="matrix(1, 0, 0, 1, 1147, 238)">
      <path id="Path_48-2" data-name="Path 48" class="cls-1" d="M126.939-67.83c-11.628,12.6-22.287,19.38-29.07,19.38-27.132,0,9.69-208.335,35.853-283.917,4.845-13.566-40.7-30.039-66.861-30.039-33.915,0-60.078,35.853-80.427,180.234a462.385,462.385,0,0,0-5.814,73.644c0,77.52,35.853,113.373,105.621,113.373C135.66,4.845,163.761-33.915,126.939-67.83ZM105.621-531.981c-19.38,40.7-28.1,63.954-28.1,72.675,0,23.256,49.419,31.008,63.954,29.07,24.225-3.876,45.543-69.768,45.543-91.086,0-18.411-39.729-21.318-52.326-21.318C124.032-542.64,110.466-540.7,105.621-531.981Z" transform="translate(428 590)"/>
    </g>
  </g>
</svg>
